<svg width="1957" height="826" xmlns="http://www.w3.org/2000/svg" xmlns:xlink="http://www.w3.org/1999/xlink" overflow="hidden"><defs><clipPath id="clip0"><rect x="849" y="940" width="1957" height="826"/></clipPath></defs><g clip-path="url(#clip0)" transform="translate(-849 -940)"><rect x="1441.5" y="942.5" width="1362" height="513" stroke="#000000" stroke-width="4.58333" stroke-miterlimit="8" fill="#D9D9D9"/><rect x="849" y="1084" width="435" height="217" fill="#0E549A"/><text fill="#FFFFFF" font-family="Calibri,Calibri_MSFontService,sans-serif" font-weight="400" font-size="83" transform="matrix(1 0 0 1 988.824 1220)">User</text><rect x="2154" y="1525" width="435" height="217" fill="#0E549A"/><text fill="#FFFFFF" font-family="Calibri,Calibri_MSFontService,sans-serif" font-weight="400" font-size="73" transform="matrix(1 0 0 1 2235.43 1615)">3rd Party <tspan font-size="73" x="5.6604" y="88">Payment</tspan></text><rect x="1537" y="1084" width="435" height="217" fill="#0E549A"/><text fill="#FFFFFF" font-family="Calibri,Calibri_MSFontService,sans-serif" font-weight="400" font-size="83" transform="matrix(1 0 0 1 1686.77 1220)">PH<tspan font-size="83" x="93.9583" y="0">P</tspan></text><path d="M2154.5 1105.37C2154.5 1116.9 2251.88 1126.25 2372 1126.25 2492.12 1126.25 2589.5 1116.9 2589.5 1105.37L2589.5 1280.63C2589.5 1292.15 2492.12 1301.5 2372 1301.5 2251.88 1301.5 2154.5 1292.15 2154.5 1280.63Z" fill="#0E549A" fill-rule="evenodd"/><path d="M2154.5 1105.37C2154.5 1093.85 2251.88 1084.5 2372 1084.5 2492.12 1084.5 2589.5 1093.85 2589.5 1105.37 2589.5 1116.9 2492.12 1126.25 2372 1126.25 2251.88 1126.25 2154.5 1116.9 2154.5 1105.37Z" fill="#6E98C2" fill-rule="evenodd"/><path d="M2589.5 1105.37C2589.5 1116.9 2492.12 1126.25 2372 1126.25 2251.88 1126.25 2154.5 1116.9 2154.5 1105.37 2154.5 1093.85 2251.88 1084.5 2372 1084.5 2492.12 1084.5 2589.5 1093.85 2589.5 1105.37L2589.5 1280.63C2589.5 1292.15 2492.12 1301.5 2372 1301.5 2251.88 1301.5 2154.5 1292.15 2154.5 1280.63L2154.5 1105.37" stroke="#2F528F" stroke-width="4.58333" stroke-miterlimit="8" fill="none" fill-rule="evenodd"/><text fill="#FFFFFF" font-family="Calibri,Calibri_MSFontService,sans-serif" font-weight="400" font-size="83" transform="matrix(1 0 0 1 2253.33 1230)">MySQL</text><path d="M1284 1185.13 1503.43 1185.13 1503.43 1198.88 1284 1198.88ZM1496.55 1171.38 1537.8 1192 1496.55 1212.63Z" fill="#0E549A"/><path d="M2.7352e-05-6.875 147.048-6.87441 147.048 6.87559-2.7352e-05 6.875ZM140.173-20.6244 181.423 0.000721785 140.173 20.6256Z" fill="#0E549A" transform="matrix(1 0 0 -1 1972 1192)"/><path d="M0-6.875 339.561-6.875 339.561 364.538 325.811 364.538 325.811 0 332.686 6.875 0 6.875ZM353.311 357.663 332.686 398.913 312.061 357.663Z" fill="#0E549A" transform="matrix(1.83697e-16 1 1 -1.83697e-16 1755 1301)"/></g></svg>