<svg width="3510" height="1184" xmlns="http://www.w3.org/2000/svg" xmlns:xlink="http://www.w3.org/1999/xlink" overflow="hidden"><defs><clipPath id="clip0"><rect x="733" y="998" width="3510" height="1184"/></clipPath></defs><g clip-path="url(#clip0)" transform="translate(-733 -998)"><rect x="1233.5" y="1000.5" width="3007" height="1179" stroke="#000000" stroke-width="4.58333" stroke-miterlimit="8" fill="#D9D9D9"/><rect x="2002.5" y="1074.5" width="1334" height="1001" stroke="#000000" stroke-width="4.58333" stroke-miterlimit="8" fill="#A6A6A6"/><rect x="2274" y="1112" width="494" height="162" fill="#0E549A"/><text fill="#FFFFFF" font-family="Calibri,Calibri_MSFontService,sans-serif" font-weight="400" font-size="83" transform="matrix(1 0 0 1 2457.41 1221)">ER<tspan font-size="83" x="84.7918" y="0">P</tspan></text><rect x="2274" y="1301" width="494" height="162" fill="#0E549A"/><text fill="#FFFFFF" font-family="Calibri,Calibri_MSFontService,sans-serif" font-weight="400" font-size="83" transform="matrix(1 0 0 1 2441.37 1409)">CRM</text><rect x="2274" y="1490" width="494" height="162" fill="#0E549A"/><text fill="#FFFFFF" font-family="Calibri,Calibri_MSFontService,sans-serif" font-weight="400" font-size="83" transform="matrix(1 0 0 1 2408.74 1598)">Payroll</text><rect x="2274" y="1686" width="494" height="162" fill="#0E549A"/><text fill="#FFFFFF" font-family="Calibri,Calibri_MSFontService,sans-serif" font-weight="400" font-size="83" transform="matrix(1 0 0 1 2472.88 1794)">HR</text><rect x="2795" y="1112" width="494" height="162" fill="#0E549A"/><text fill="#FFFFFF" font-family="Calibri,Calibri_MSFontService,sans-serif" font-weight="400" font-size="83" transform="matrix(1 0 0 1 2891.76 1221)">Analytics</text><rect x="2795" y="1301" width="494" height="162" fill="#0E549A"/><text fill="#FFFFFF" font-family="Calibri,Calibri_MSFontService,sans-serif" font-weight="400" font-size="83" transform="matrix(1 0 0 1 2877.51 1409)">Reporting</text><rect x="2795" y="1493" width="494" height="162" fill="#0E549A"/><text fill="#FFFFFF" font-family="Calibri,Calibri_MSFontService,sans-serif" font-weight="400" font-size="83" transform="matrix(1 0 0 1 2956.04 1602)">Legal</text><rect x="2795" y="1686" width="494" height="162" fill="#0E549A"/><text fill="#FFFFFF" font-family="Calibri,Calibri_MSFontService,sans-serif" font-weight="400" font-size="83" transform="matrix(1 0 0 1 2887.95 1794)">3rd<tspan font-size="83" x="131.794" y="0">part</tspan><tspan font-size="83" x="271.013" y="0">y</tspan></text><rect x="2274" y="1877" width="1015" height="161" fill="#0E549A"/><text fill="#FFFFFF" font-family="Calibri,Calibri_MSFontService,sans-serif" font-weight="400" font-size="83" transform="matrix(1 0 0 1 2323.29 1985)">Workflow | Audit | <tspan font-size="83" x="657.938" y="0">Logging</tspan></text><rect x="2085" y="1112" width="162" height="926" fill="#0E549A"/><text fill="#FFFFFF" font-family="Calibri,Calibri_MSFontService,sans-serif" font-weight="400" font-size="83" transform="matrix(-1.83697e-16 -1 1 -1.83697e-16 2193.49 1631)">API</text><path d="M3635.5 1186.37C3635.5 1202.32 3757.95 1215.25 3909 1215.25 4060.05 1215.25 4182.5 1202.32 4182.5 1186.37L4182.5 1359.62C4182.5 1375.57 4060.05 1388.5 3909 1388.5 3757.95 1388.5 3635.5 1375.57 3635.5 1359.62Z" fill="#0E549A" fill-rule="evenodd"/><path d="M3635.5 1186.37C3635.5 1170.43 3757.95 1157.5 3909 1157.5 4060.05 1157.5 4182.5 1170.43 4182.5 1186.37 4182.5 1202.32 4060.05 1215.25 3909 1215.25 3757.95 1215.25 3635.5 1202.32 3635.5 1186.37Z" fill="#6E98C2" fill-rule="evenodd"/><path d="M4182.5 1186.37C4182.5 1202.32 4060.05 1215.25 3909 1215.25 3757.95 1215.25 3635.5 1202.32 3635.5 1186.37 3635.5 1170.43 3757.95 1157.5 3909 1157.5 4060.05 1157.5 4182.5 1170.43 4182.5 1186.37L4182.5 1359.62C4182.5 1375.57 4060.05 1388.5 3909 1388.5 3757.95 1388.5 3635.5 1375.57 3635.5 1359.62L3635.5 1186.37" stroke="#2F528F" stroke-width="4.58333" stroke-miterlimit="8" fill="none" fill-rule="evenodd"/><text fill="#FFFFFF" font-family="Calibri,Calibri_MSFontService,sans-serif" font-weight="400" font-size="83" transform="matrix(1 0 0 1 3715.48 1315)">Customer 1</text><path d="M3635.5 1449.5C3635.5 1465.52 3757.95 1478.5 3909 1478.5 4060.05 1478.5 4182.5 1465.52 4182.5 1449.5L4182.5 1623.5C4182.5 1639.52 4060.05 1652.5 3909 1652.5 3757.95 1652.5 3635.5 1639.52 3635.5 1623.5Z" fill="#0E549A" fill-rule="evenodd"/><path d="M3635.5 1449.5C3635.5 1433.48 3757.95 1420.5 3909 1420.5 4060.05 1420.5 4182.5 1433.48 4182.5 1449.5 4182.5 1465.52 4060.05 1478.5 3909 1478.5 3757.95 1478.5 3635.5 1465.52 3635.5 1449.5Z" fill="#6E98C2" fill-rule="evenodd"/><path d="M4182.5 1449.5C4182.5 1465.52 4060.05 1478.5 3909 1478.5 3757.95 1478.5 3635.5 1465.52 3635.5 1449.5 3635.5 1433.48 3757.95 1420.5 3909 1420.5 4060.05 1420.5 4182.5 1433.48 4182.5 1449.5L4182.5 1623.5C4182.5 1639.52 4060.05 1652.5 3909 1652.5 3757.95 1652.5 3635.5 1639.52 3635.5 1623.5L3635.5 1449.5" stroke="#2F528F" stroke-width="4.58333" stroke-miterlimit="8" fill="none" fill-rule="evenodd"/><text fill="#FFFFFF" font-family="Calibri,Calibri_MSFontService,sans-serif" font-weight="400" font-size="83" transform="matrix(1 0 0 1 3715.48 1578)">Customer 2</text><path d="M3635.5 1837.5C3635.5 1853.52 3757.95 1866.5 3909 1866.5 4060.05 1866.5 4182.5 1853.52 4182.5 1837.5L4182.5 2011.5C4182.5 2027.52 4060.05 2040.5 3909 2040.5 3757.95 2040.5 3635.5 2027.52 3635.5 2011.5Z" fill="#0E549A" fill-rule="evenodd"/><path d="M3635.5 1837.5C3635.5 1821.48 3757.95 1808.5 3909 1808.5 4060.05 1808.5 4182.5 1821.48 4182.5 1837.5 4182.5 1853.52 4060.05 1866.5 3909 1866.5 3757.95 1866.5 3635.5 1853.52 3635.5 1837.5Z" fill="#6E98C2" fill-rule="evenodd"/><path d="M4182.5 1837.5C4182.5 1853.52 4060.05 1866.5 3909 1866.5 3757.95 1866.5 3635.5 1853.52 3635.5 1837.5 3635.5 1821.48 3757.95 1808.5 3909 1808.5 4060.05 1808.5 4182.5 1821.48 4182.5 1837.5L4182.5 2011.5C4182.5 2027.52 4060.05 2040.5 3909 2040.5 3757.95 2040.5 3635.5 2027.52 3635.5 2011.5L3635.5 1837.5" stroke="#2F528F" stroke-width="4.58333" stroke-miterlimit="8" fill="none" fill-rule="evenodd"/><text fill="#FFFFFF" font-family="Calibri,Calibri_MSFontService,sans-serif" font-weight="400" font-size="83" transform="matrix(1 0 0 1 3714.62 1966)">Customer <tspan font-size="83" x="343.75" y="0">n</tspan><tspan fill="#000000" font-size="83" x="164.687" y="-221">…</tspan></text><rect x="1610" y="1488" width="263" height="167" fill="#0E549A"/><text fill="#FFFFFF" font-family="Calibri,Calibri_MSFontService,sans-serif" font-weight="400" font-size="83" transform="matrix(1 0 0 1 1664.04 1599)">Web</text><path d="M1873.13 1564.13 2050.49 1567.36 2050.24 1581.11 1872.87 1577.87ZM2043.87 1553.49 2084.74 1574.86 2043.12 1594.73Z" fill="#0E549A"/><path d="M0-6.875 156.172-6.875 156.172 302.03 149.297 295.155 264.219 295.155 264.219 308.905 142.422 308.905 142.422 0 149.297 6.875 0 6.875ZM257.344 281.405 298.594 302.03 257.344 322.655Z" fill="#0E549A" transform="matrix(1 0 0 -1 3336 1575.03)"/><path d="M0-6.875 156.172-6.875 156.172 38.9482 149.297 32.0732 264.219 32.0732 264.219 45.8232 142.422 45.8232 142.422 0 149.297 6.875 0 6.875ZM257.344 18.3232 298.594 38.9482 257.344 59.5732Z" fill="#0E549A" transform="matrix(1 0 0 -1 3336 1574.95)"/><path d="M3336 1568.13 3492.17 1568.13 3492.17 1924.43 3485.3 1917.55 3600.22 1917.55 3600.22 1931.3 3478.42 1931.3 3478.42 1575 3485.3 1581.88 3336 1581.88ZM3593.34 1903.8 3634.59 1924.43 3593.34 1945.05Z" fill="#0E549A"/><rect x="733" y="1462" width="435" height="217" fill="#0E549A"/><text fill="#FFFFFF" font-family="Calibri,Calibri_MSFontService,sans-serif" font-weight="400" font-size="83" transform="matrix(1 0 0 1 858.247 1598)">Users</text><path d="M1168 1564.12 1278.47 1564.13 1278.47 1577.88 1168 1577.87ZM1271.6 1550.38 1312.85 1571 1271.6 1591.63Z" fill="#0E549A"/><rect x="1313" y="1272" width="168" height="597" fill="#0E549A"/><text fill="#FFFFFF" font-family="Calibri,Calibri_MSFontService,sans-serif" font-weight="400" font-size="83" transform="matrix(-1.83697e-16 -1 1 -1.83697e-16 1424.47 1822)">Load<tspan font-size="83" x="181" y="3.32492e-14">Balancers</tspan></text><path d="M1481.05 1564.12 1575.86 1564.75 1575.77 1578.5 1480.95 1577.87ZM1569.08 1550.95 1610.19 1571.85 1568.81 1592.2Z" fill="#0E549A"/></g></svg>