<svg width="3272" height="1575" xmlns="http://www.w3.org/2000/svg" xmlns:xlink="http://www.w3.org/1999/xlink" overflow="hidden"><defs><clipPath id="clip0"><rect x="691" y="607" width="3272" height="1575"/></clipPath><clipPath id="clip1"><rect x="1532" y="1515" width="223" height="218"/></clipPath><clipPath id="clip2"><rect x="1532" y="1515" width="223" height="218"/></clipPath><clipPath id="clip3"><rect x="1532" y="1515" width="223" height="218"/></clipPath></defs><g clip-path="url(#clip0)" transform="translate(-691 -607)"><rect x="1441.5" y="609.5" width="2519" height="1179" stroke="#000000" stroke-width="4.58333" stroke-miterlimit="8" fill="#D9D9D9"/><rect x="691" y="1084" width="435" height="217" fill="#0E549A"/><text fill="#FFFFFF" font-family="Calibri,Calibri_MSFontService,sans-serif" font-weight="400" font-size="83" transform="matrix(1 0 0 1 841.259 1220)">App</text><rect x="3322" y="1925" width="435" height="217" fill="#0E549A"/><text fill="#FFFFFF" font-family="Calibri,Calibri_MSFontService,sans-serif" font-weight="400" font-size="83" transform="matrix(1 0 0 1 3386.62 2011)">3rd Party <tspan font-size="83" x="16.2251" y="99">Services</tspan></text><rect x="1537" y="1084" width="435" height="217" fill="#0E549A"/><text fill="#FFFFFF" font-family="Calibri,Calibri_MSFontService,sans-serif" font-weight="400" font-size="83" transform="matrix(1 0 0 1 1636.9 1220)">Ingress</text><rect x="2275" y="738" width="613" height="217" fill="#0E549A"/><text fill="#FFFFFF" font-family="Calibri,Calibri_MSFontService,sans-serif" font-weight="400" font-size="83" transform="matrix(1 0 0 1 2335.95 874)">Microservice 1</text><rect x="2275" y="1084" width="613" height="217" fill="#0E549A"/><text fill="#FFFFFF" font-family="Calibri,Calibri_MSFontService,sans-serif" font-weight="400" font-size="83" transform="matrix(1 0 0 1 2335.95 1220)">Microservice <tspan font-size="83" x="449.167" y="0">2</tspan></text><rect x="2275" y="1423" width="613" height="217" fill="#0E549A"/><text fill="#FFFFFF" font-family="Calibri,Calibri_MSFontService,sans-serif" font-weight="400" font-size="83" transform="matrix(1 0 0 1 2335.95 1559)">Microservice <tspan font-size="83" x="449.167" y="0">3</tspan></text><path d="M3267.5 716.25C3267.5 740.964 3390.17 760.999 3541.5 760.999 3692.83 760.999 3815.5 740.964 3815.5 716.25L3815.5 984.75C3815.5 1009.46 3692.83 1029.5 3541.5 1029.5 3390.17 1029.5 3267.5 1009.46 3267.5 984.75Z" fill="#0E549A" fill-rule="evenodd"/><path d="M3267.5 716.25C3267.5 691.535 3390.17 671.5 3541.5 671.5 3692.83 671.5 3815.5 691.535 3815.5 716.25 3815.5 740.964 3692.83 760.999 3541.5 760.999 3390.17 760.999 3267.5 740.964 3267.5 716.25Z" fill="#6E98C2" fill-rule="evenodd"/><path d="M3815.5 716.25C3815.5 740.964 3692.83 760.999 3541.5 760.999 3390.17 760.999 3267.5 740.964 3267.5 716.25 3267.5 691.535 3390.17 671.5 3541.5 671.5 3692.83 671.5 3815.5 691.535 3815.5 716.25L3815.5 984.75C3815.5 1009.46 3692.83 1029.5 3541.5 1029.5 3390.17 1029.5 3267.5 1009.46 3267.5 984.75L3267.5 716.25" stroke="#2F528F" stroke-width="4.58333" stroke-miterlimit="8" fill="none" fill-rule="evenodd"/><text fill="#FFFFFF" font-family="Calibri,Calibri_MSFontService,sans-serif" font-weight="400" font-size="83" transform="matrix(1 0 0 1 3384.76 900)">Database</text><path d="M3266.5 1397.25C3266.5 1421.96 3388.95 1442 3540 1442 3691.05 1442 3813.5 1421.96 3813.5 1397.25L3813.5 1665.75C3813.5 1690.46 3691.05 1710.5 3540 1710.5 3388.95 1710.5 3266.5 1690.46 3266.5 1665.75Z" fill="#0E549A" fill-rule="evenodd"/><path d="M3266.5 1397.25C3266.5 1372.54 3388.95 1352.5 3540 1352.5 3691.05 1352.5 3813.5 1372.54 3813.5 1397.25 3813.5 1421.96 3691.05 1442 3540 1442 3388.95 1442 3266.5 1421.96 3266.5 1397.25Z" fill="#6E98C2" fill-rule="evenodd"/><path d="M3813.5 1397.25C3813.5 1421.96 3691.05 1442 3540 1442 3388.95 1442 3266.5 1421.96 3266.5 1397.25 3266.5 1372.54 3388.95 1352.5 3540 1352.5 3691.05 1352.5 3813.5 1372.54 3813.5 1397.25L3813.5 1665.75C3813.5 1690.46 3691.05 1710.5 3540 1710.5 3388.95 1710.5 3266.5 1690.46 3266.5 1665.75L3266.5 1397.25" stroke="#2F528F" stroke-width="4.58333" stroke-miterlimit="8" fill="none" fill-rule="evenodd"/><text fill="#FFFFFF" font-family="Calibri,Calibri_MSFontService,sans-serif" font-weight="400" font-size="83" transform="matrix(1 0 0 1 3383.19 1581)">Database</text><path d="M1126 1185.13 1503.02 1185.13 1503.02 1198.88 1126 1198.88ZM1496.15 1171.38 1537.4 1192 1496.15 1212.63Z" fill="#0E549A"/><path d="M0-6.875 158.19-6.875 158.19 346.099 151.315 339.224 268.255 339.224 268.255 352.974 144.44 352.974 144.44 0 151.315 6.875 0 6.875ZM261.38 325.474 302.63 346.099 261.38 366.724Z" fill="#0E549A" transform="matrix(1 0 0 -1 1972 1192.1)"/><path d="M1972 1185.13 2130.19 1185.13 2130.19 1531.12 2123.32 1524.25 2240.26 1524.25 2240.26 1538 2116.44 1538 2116.44 1192 2123.32 1198.88 1972 1198.88ZM2233.38 1510.5 2274.63 1531.12 2233.38 1551.75Z" fill="#0E549A"/><path d="M0-6.875 158.19-6.875 158.19 0.000360892 151.315-6.87464 268.255-6.87464 268.255 6.87536 144.44 6.87536 144.44 0 151.315 6.875 0 6.875ZM261.38-20.6246 302.63 0.000360892 261.38 20.6254Z" fill="#0E549A" transform="matrix(1 0 0 -1 1972 1192)"/><path d="M2574.13 1049.53 2574.12 989.375 2587.88 989.375 2587.88 1049.53ZM2601.63 1042.66 2581 1083.91 2560.38 1042.66ZM2560.38 996.25 2581 955 2601.62 996.25Z" fill="#0E549A"/><path d="M6.8751 34.375 6.87526 87.5546-6.87474 87.5547-6.8749 34.375ZM-20.6249 41.2501 0 0 20.6251 41.2499ZM20.6252 80.6796 0.000360892 121.93-20.6248 80.6797Z" fill="#0E549A" transform="matrix(1 0 0 -1 2581 1422.93)"/><path d="M2888.08 839.125 3233.04 842.923 3232.89 856.672 2887.92 852.875ZM3226.31 829.098 3267.33 850.175 3225.86 870.345Z" fill="#0E549A"/><path d="M6.56785e-06-6.875 343.395-6.87467 343.395 6.87533-6.56785e-06 6.875ZM336.52-20.6247 377.77 0.000360892 336.52 20.6253Z" fill="#0E549A" transform="matrix(1 0 0 -1 2888 1531)"/><path d="M0-6.875 400.248-6.875 400.248 705.977 386.498 705.977 386.498 0 393.373 6.875 0 6.875ZM413.998 699.102 393.373 740.352 372.748 699.102Z" fill="#0E549A" transform="matrix(1.83697e-16 1 1 -1.83697e-16 2581 1640)"/><g clip-path="url(#clip1)"><g clip-path="url(#clip2)"><g clip-path="url(#clip3)"><path d="M71.5036 213.36C66.2855 213.374 61.351 210.987 58.1237 206.886L7.76928 144.303C4.45999 140.13 3.16555 134.807 4.45999 129.628L22.4437 51.506C23.5944 46.3265 27.0474 42.1548 31.7949 39.8525L104.594 5.03579C106.896 3.88507 109.485 3.30928 112.075 3.30928 114.665 3.30928 117.254 3.88507 119.556 5.03579L192.355 39.7088C197.102 42.0111 200.555 46.1827 201.706 51.3622L219.69 129.484C220.84 134.664 219.69 139.987 216.38 144.159L166.026 206.743C162.717 210.771 157.825 213.216 152.646 213.216L71.5028 213.36 71.5028 213.36Z" fill="#326DE6" transform="matrix(1 0 0 1.00045 1532 1516)"/><path d="M111.931 6.90602C113.945 6.90602 115.96 7.33721 117.83 8.20047L190.629 42.8734C194.37 44.7437 197.247 48.1967 198.11 52.2246L216.094 130.347C217.101 134.519 216.094 138.836 213.36 142.144L163.006 204.728C160.416 208.037 156.388 209.907 152.216 209.907L71.5036 209.907C67.3311 209.907 63.3032 208.037 60.7134 204.728L10.359 142.144C7.76928 138.835 6.76229 134.518 7.62555 130.347L25.6093 52.2246C26.6162 48.0521 29.3497 44.5991 33.0902 42.8734L105.889 8.05674C107.759 7.33721 109.918 6.90602 111.932 6.90602L111.932 6.90602ZM111.931 0.14373 111.931 0.14373C108.91 0.14373 105.888 0.863253 103.011 2.1577L30.213 36.9744C24.4585 39.7079 20.4297 44.7437 18.9907 50.9302L1.00698 129.052C-0.432062 135.239 1.00698 141.569 5.03579 146.605L55.3902 209.189C59.2744 214.08 65.1734 216.814 71.3599 216.814L152.071 216.814C158.258 216.814 164.157 214.081 168.041 209.189L218.395 146.605C222.424 141.714 223.862 135.239 222.424 129.052L204.44 50.9302C203.001 44.7437 198.973 39.7079 193.218 36.9744L120.707 2.1577C117.974 0.863253 114.953 0.14373 111.931 0.14373L111.931 0.14373 111.931 0.14373ZM184.874 124.16 184.874 124.16 184.874 124.16C184.73 124.16 184.73 124.16 184.874 124.16L184.73 124.16C184.586 124.16 184.443 124.16 184.443 124.017 184.155 124.017 183.867 123.873 183.579 123.873L180.846 123.585C180.415 123.585 179.983 123.585 179.407 123.442L179.263 123.442C176.242 123.154 173.796 122.866 171.494 122.147 170.487 121.716 170.199 121.14 169.911 120.564 169.911 120.421 169.767 120.421 169.767 120.277L169.767 120.277 167.897 119.701C168.781 112.934 168.439 106.062 166.89 99.4152 165.307 92.6529 162.574 86.3227 158.833 80.5682L160.272 79.2738 160.272 78.9863C160.272 78.2668 160.416 77.5473 160.992 76.8286 162.718 75.2459 164.876 73.9514 167.466 72.3686L167.466 72.3686C167.897 72.0812 168.329 71.9375 168.76 71.6491 169.624 71.2179 170.343 70.7859 171.206 70.2101 171.35 70.0663 171.637 69.9226 171.926 69.6343 172.07 69.4906 172.213 69.4906 172.213 69.3468L172.213 69.3468C174.227 67.6203 174.659 64.7431 173.22 62.8729 172.501 61.8659 171.206 61.2901 169.911 61.2901 168.76 61.2901 167.753 61.7213 166.745 62.4408L166.745 62.4408 166.745 62.4408 166.458 62.7283C166.171 62.872 166.027 63.1594 165.738 63.3041 165.019 64.0236 164.444 64.5985 163.868 65.318 163.581 65.6055 163.292 66.0375 162.861 66.325L162.861 66.325C160.847 68.4827 158.977 70.2092 157.107 71.5045 156.676 71.792 156.244 71.9357 155.812 71.9357 155.525 71.9357 155.237 71.9357 154.949 71.792L154.662 71.792 154.662 71.792 152.935 72.9427C151.065 70.9287 149.051 69.2022 147.036 67.4757 138.364 60.6974 127.927 56.5527 116.967 55.5348L116.823 53.6645 116.536 53.3771C116.104 52.9459 115.529 52.5138 115.385 51.5068 115.241 49.2045 115.529 46.6157 115.816 43.7376L115.816 43.5938C115.816 43.1626 115.96 42.5869 116.104 42.1548L116.535 39.4213 116.535 38.558 116.535 38.1269 116.535 38.1269 116.535 38.1269C116.535 35.5371 114.521 33.3794 112.075 33.3794 110.924 33.3794 109.772 33.9552 108.909 34.8184 108.046 35.6817 107.615 36.8324 107.615 38.1277L107.615 38.1277 107.615 38.1277 107.615 38.4152 107.615 39.2784C107.615 40.2854 107.759 41.1487 108.046 42.0119 108.19 42.4431 108.19 42.8752 108.333 43.451L108.333 43.5947C108.621 46.4719 109.053 49.0617 108.765 51.364 108.621 52.371 108.045 52.803 107.614 53.2342L107.326 53.5217 107.326 53.5217 107.183 55.3919C104.593 55.6794 102.003 55.9677 99.4135 56.5426 88.3358 58.9887 78.5525 64.5994 70.927 72.6561L69.4879 71.6491 69.2005 71.6491C68.913 71.6491 68.6247 71.7928 68.3372 71.7928 67.906 71.7928 67.474 71.6491 67.0428 71.3617 65.1725 70.0672 63.3023 68.1961 61.2883 66.0384L61.2883 66.0384C61.0009 65.751 60.7126 65.3189 60.2814 65.0314 59.7056 64.3119 59.1306 63.737 58.4111 63.0175 58.2674 62.8737 57.9799 62.73 57.6916 62.4417 57.5479 62.2979 57.4041 62.2979 57.4041 62.1542L57.4041 62.1542C56.5127 61.418 55.3947 61.0116 54.2386 61.0035 52.9441 61.0035 51.6488 61.5793 50.9293 62.5863 49.4903 64.4565 49.9223 67.3337 51.9363 69.0602L51.9363 69.0602 51.9363 69.0602C52.08 69.0602 52.08 69.204 52.2238 69.204 52.5112 69.3477 52.6549 69.6352 52.9433 69.7798 53.8065 70.3555 54.5261 70.7867 55.3893 71.2188 55.8205 71.3625 56.2526 71.65 56.6837 71.9383L56.6837 71.9383C59.2735 73.5211 61.4312 74.8155 63.1577 76.3983 63.8772 77.1178 63.8772 77.8374 63.8772 78.556L63.8772 78.8435 63.8772 78.8435 65.3163 80.1379C65.0288 80.5691 64.7405 80.8574 64.5967 81.2886 57.4033 92.6546 54.6698 106.035 56.54 119.271L54.6698 119.847C54.6698 119.99 54.5261 119.99 54.5261 120.134 54.1959 120.828 53.637 121.387 52.9433 121.717 50.7856 122.436 48.1958 122.724 45.174 123.011L45.0303 123.011C44.5991 123.011 44.0233 123.011 43.5912 123.155 42.728 123.155 41.8647 123.299 40.8577 123.443 40.5703 123.443 40.2819 123.586 39.9945 123.586 39.8507 123.586 39.707 123.586 39.5633 123.73L39.5633 123.73 39.5633 123.73C36.9735 124.306 35.3908 126.751 35.8228 129.053 36.254 131.067 38.1251 132.363 40.4265 132.363 40.8577 132.363 41.1461 132.363 41.5773 132.219L41.5773 132.219 41.5773 132.219C41.721 132.219 41.8647 132.219 41.8647 132.075 42.1522 132.075 42.4405 131.931 42.728 131.931 43.6228 131.683 44.4904 131.346 45.3177 130.924 45.7489 130.781 46.181 130.493 46.6122 130.349L46.7559 130.349C49.4894 129.342 51.9354 128.478 54.2368 128.191L54.5243 128.191C55.3876 128.191 55.9634 128.622 56.3945 128.91 56.5383 128.91 56.5383 129.054 56.682 129.054L56.682 129.054 58.696 128.767C62.1717 139.445 68.7293 148.856 77.5429 155.814 79.5569 157.397 81.5717 158.691 83.7294 159.987L82.8662 161.857C82.8662 162.001 83.0099 162.001 83.0099 162.144 83.2974 162.72 83.5857 163.439 83.2974 164.447 82.4341 166.604 81.1397 168.763 79.5569 171.209L79.5569 171.353C79.2694 171.784 78.9811 172.072 78.6936 172.503 78.1179 173.223 77.6867 173.942 77.1109 174.806 76.9671 174.949 76.8234 175.237 76.6797 175.525 76.6797 175.669 76.5359 175.813 76.5359 175.813L76.5359 175.813 76.5359 175.813C75.3852 178.259 76.2485 180.992 78.4062 181.999 78.982 182.287 79.5569 182.43 80.1327 182.43 81.8592 182.43 83.5857 181.28 84.449 179.697L84.449 179.697 84.449 179.697C84.449 179.553 84.5927 179.409 84.5927 179.409 84.7364 179.122 84.8801 178.834 85.0239 178.69 85.4551 177.683 85.5997 176.963 85.8871 176.1L86.3183 174.806 86.3183 174.806C87.3253 171.928 88.0448 169.626 89.3393 167.612 89.9151 166.749 90.6337 166.605 91.2095 166.318 91.3532 166.318 91.3532 166.318 91.497 166.174L91.497 166.174 92.504 164.304C98.9322 166.774 105.76 168.042 112.646 168.044 116.819 168.044 121.135 167.613 125.163 166.605 127.698 166.039 130.196 165.318 132.644 164.447L133.507 166.03C133.651 166.03 133.651 166.03 133.795 166.174 134.514 166.318 135.089 166.605 135.665 167.468 136.816 169.482 137.679 171.928 138.686 174.662L138.686 174.806 139.117 176.1C139.404 176.963 139.548 177.827 139.98 178.69 140.124 178.977 140.268 179.121 140.411 179.409 140.411 179.553 140.555 179.697 140.555 179.697L140.555 179.697 140.555 179.697C141.418 181.423 143.145 182.43 144.871 182.43 145.447 182.43 146.022 182.287 146.598 181.999 147.605 181.423 148.468 180.56 148.756 179.409 149.043 178.259 149.043 176.963 148.468 175.813L148.468 175.813 148.468 175.813C148.468 175.669 148.324 175.669 148.324 175.525 148.181 175.238 148.037 174.949 147.893 174.806 147.462 173.942 146.886 173.223 146.31 172.503 146.023 172.072 145.735 171.784 145.447 171.353L145.447 171.209C143.864 168.763 142.426 166.605 141.707 164.447 141.419 163.44 141.707 162.864 141.85 162.144 141.85 162.001 141.994 162.001 141.994 161.857L141.994 161.857 141.275 160.13C148.9 155.67 155.374 149.34 160.265 141.571 162.855 137.542 164.869 133.082 166.308 128.622L168.035 128.91C168.178 128.91 168.178 128.766 168.322 128.766 168.898 128.478 169.329 128.046 170.192 128.046L170.48 128.046C172.782 128.334 175.227 129.197 177.961 130.204L178.104 130.204C178.536 130.348 178.968 130.635 179.399 130.78 180.226 131.201 181.094 131.539 181.989 131.787 182.276 131.787 182.564 131.93 182.852 131.93 182.996 131.93 183.139 131.93 183.283 132.074L183.283 132.074C183.714 132.218 184.003 132.218 184.434 132.218 186.592 132.218 188.463 130.779 189.038 128.909 189.038 127.182 187.455 124.88 184.865 124.161L184.865 124.161ZM118.261 117.111 111.931 120.132 105.601 117.111 104.018 110.348 108.334 104.881 115.384 104.881 119.7 110.348 118.261 117.111 118.261 117.111ZM155.811 102.148C156.928 106.906 157.268 111.812 156.818 116.679L134.806 110.348C132.792 109.772 131.64 107.759 132.072 105.745 132.216 105.169 132.504 104.594 132.936 104.162L150.345 88.4795C152.791 92.5083 154.661 97.112 155.811 102.147L155.811 102.147ZM143.438 79.8478 124.592 93.2278C123.009 94.2348 120.851 93.9473 119.556 92.3646 119.125 91.9334 118.98 91.3576 118.836 90.7818L117.542 67.3311C127.34 68.4591 136.467 72.8708 143.438 79.8478L143.438 79.8478ZM101.716 68.0506 106.319 67.1874 105.025 90.2069C104.881 92.2208 103.299 93.9473 101.141 93.9473 100.565 93.9473 99.8464 93.8036 99.4143 93.5162L80.2799 79.8487C86.1789 73.9497 93.5162 69.9217 101.717 68.0515L101.717 68.0515ZM73.373 88.4804 90.4935 103.731C92.0762 105.025 92.22 107.471 90.9247 109.054 90.4935 109.63 89.9177 110.061 89.1982 110.205L66.8982 116.679C66.0349 106.895 68.1926 96.9683 73.3721 88.4795L73.3721 88.4795ZM69.4888 127.47 92.3646 123.585C94.2348 123.442 95.9613 124.736 96.3934 126.606 96.5371 127.47 96.5371 128.189 96.2496 128.909L96.2496 128.909 87.4734 150.058C79.4166 144.878 72.9427 136.965 69.4897 127.47L69.4897 127.47ZM122.002 156.1C118.692 156.819 115.384 157.251 111.931 157.251 106.895 157.251 102.004 156.387 97.4004 154.948L108.766 134.375C109.917 133.08 111.787 132.505 113.37 133.368 114.09 133.799 114.665 134.375 115.097 134.951L115.097 134.951 126.174 154.948C124.88 155.379 123.441 155.668 122.002 156.099L122.002 156.099ZM150.056 136.102C146.459 141.857 141.712 146.461 136.245 150.058L127.181 128.334C126.75 126.607 127.469 124.737 129.195 123.874 129.771 123.586 130.49 123.443 131.209 123.443L154.229 127.327C153.365 130.492 151.926 133.37 150.056 136.103L150.056 136.103Z" fill="#FFFFFF" transform="matrix(1 0 0 1.00045 1532 1516)"/></g></g></g></g></svg>