<svg width="1957" height="826" xmlns="http://www.w3.org/2000/svg" xmlns:xlink="http://www.w3.org/1999/xlink" overflow="hidden"><defs><clipPath id="clip0"><rect x="849" y="940" width="1957" height="826"/></clipPath><clipPath id="clip1"><rect x="1608" y="1113" width="294" height="159"/></clipPath><clipPath id="clip2"><rect x="1608" y="1113" width="294" height="159"/></clipPath><clipPath id="clip3"><rect x="1608" y="1113" width="294" height="159"/></clipPath><clipPath id="clip4"><path d="M1612.13 1192.5C1612.13 1234.06 1676.1 1267.75 1755 1267.75L1755 1267.75C1833.9 1267.75 1897.87 1234.06 1897.87 1192.5L1897.87 1192.5C1897.87 1150.94 1833.9 1117.25 1755 1117.25L1755 1117.25C1676.1 1117.25 1612.13 1150.94 1612.13 1192.5"/></clipPath><radialGradient cx="0" cy="0" r="1" gradientUnits="userSpaceOnUse" spreadMethod="pad" id="fill5" gradientTransform="matrix(187.603 0 0 -187.603 91.7301 132.442)"><stop offset="0" stop-color="#AEB2D5"/><stop offset="0.3" stop-color="#AEB2D5"/><stop offset="0.75" stop-color="#484C89"/><stop offset="1" stop-color="#484C89"/></radialGradient><clipPath id="clip6"><rect x="1606" y="1108" width="298" height="169"/></clipPath><clipPath id="clip7"><rect x="1606" y="1108" width="298" height="169"/></clipPath><clipPath id="clip8"><rect x="2193" y="1106" width="366" height="252"/></clipPath><clipPath id="clip9"><rect x="2193" y="1106" width="366" height="252"/></clipPath><clipPath id="clip10"><rect x="2193" y="1106" width="366" height="252"/></clipPath></defs><g clip-path="url(#clip0)" transform="translate(-849 -940)"><rect x="1441.5" y="942.5" width="1362" height="513" stroke="#000000" stroke-width="4.58333" stroke-miterlimit="8" fill="#D9D9D9"/><rect x="849" y="1084" width="435" height="217" fill="#0E549A"/><text fill="#FFFFFF" font-family="Calibri,Calibri_MSFontService,sans-serif" font-weight="400" font-size="83" transform="matrix(1 0 0 1 988.824 1220)">User</text><rect x="2154" y="1525" width="435" height="217" fill="#0E549A"/><text fill="#FFFFFF" font-family="Calibri,Calibri_MSFontService,sans-serif" font-weight="400" font-size="73" transform="matrix(1 0 0 1 2235.43 1615)">3rd Party <tspan font-size="73" x="5.6604" y="88">Payment</tspan></text><rect x="1537.5" y="1084.5" width="435" height="217" stroke="#000000" stroke-width="4.58333" stroke-miterlimit="8" fill="#FFFFFF"/><path d="M2154.5 1030.98C2154.5 1052.23 2251.88 1069.46 2372 1069.46 2492.12 1069.46 2589.5 1052.23 2589.5 1030.98L2589.5 1354.02C2589.5 1375.27 2492.12 1392.5 2372 1392.5 2251.88 1392.5 2154.5 1375.27 2154.5 1354.02Z" fill="#FFFFFF" fill-rule="evenodd"/><path d="M2154.5 1030.98C2154.5 1009.73 2251.88 992.5 2372 992.5 2492.12 992.5 2589.5 1009.73 2589.5 1030.98 2589.5 1052.23 2492.12 1069.46 2372 1069.46 2251.88 1069.46 2154.5 1052.23 2154.5 1030.98Z" fill="#FFFFFF" fill-rule="evenodd"/><path d="M2589.5 1030.98C2589.5 1052.23 2492.12 1069.46 2372 1069.46 2251.88 1069.46 2154.5 1052.23 2154.5 1030.98 2154.5 1009.73 2251.88 992.5 2372 992.5 2492.12 992.5 2589.5 1009.73 2589.5 1030.98L2589.5 1354.02C2589.5 1375.27 2492.12 1392.5 2372 1392.5 2251.88 1392.5 2154.5 1375.27 2154.5 1354.02L2154.5 1030.98" stroke="#000000" stroke-width="4.58333" stroke-miterlimit="8" fill="none" fill-rule="evenodd"/><path d="M1284 1185.13 1503.43 1185.13 1503.43 1198.88 1284 1198.88ZM1496.55 1171.38 1537.8 1192 1496.55 1212.63Z" fill="#0E549A"/><path d="M5.47039e-05-6.875 147.048-6.87383 147.048 6.87617-5.47039e-05 6.875ZM140.173-20.6239 181.423 0.00144357 140.173 20.6261Z" fill="#0E549A" transform="matrix(1 0 0 -1 1972 1192)"/><path d="M0-6.875 339.56-6.875 339.56 364.538 325.81 364.538 325.81 0 332.685 6.875 0 6.875ZM353.31 357.663 332.685 398.913 312.06 357.663Z" fill="#0E549A" transform="matrix(1.83697e-16 1 1 -1.83697e-16 1755 1301)"/><g clip-path="url(#clip1)"><g clip-path="url(#clip2)"><g clip-path="url(#clip3)"><g clip-path="url(#clip4)"><path d="M5.95274 83.7105C5.95274 42.2051 69.9174 8.55759 148.819 8.55759L148.819 8.55759C227.72 8.55759 291.685 42.2051 291.685 83.7105L291.685 83.7105C291.685 125.215 227.72 158.863 148.819 158.863L148.819 158.863C69.9174 158.863 5.95274 125.215 5.95274 83.7105" fill="url(#fill5)" transform="matrix(1 0 0 -1.00135 1606.18 1276.32)"/></g><g clip-path="url(#clip6)"><path d="M0 0C75.8195 0 137.285 31.1491 137.285 69.5732 137.285 107.997 75.8195 139.146 0 139.146-75.8195 139.146-137.285 107.997-137.285 69.5732-137.285 31.1491-75.8195 0 0 0" fill="#777BB3" transform="matrix(1 0 0 -1.00135 1755 1262.17)"/></g><g clip-path="url(#clip7)"><path d="M0 0C6.23436 0 10.8886 1.14973 13.8334 3.41611 16.7467 5.65924 18.7589 9.54558 19.8135 14.9666 20.7969 20.0337 20.4223 23.5717 18.7005 25.481 16.94 27.4312 13.1338 28.4202 7.38771 28.4202L-2.57539 28.4202-8.09873 0 0 0ZM-32.5866-35.0085C-33.0491-35.0085-33.4883-34.8018-33.7823-34.4443-34.0769-34.0872-34.1962-33.617-34.1079-33.1628L-19.4699 42.1513C-19.3283 42.8794-18.6902 43.4054-17.9481 43.4054L13.6004 43.4054C23.5154 43.4054 30.8954 40.7133 35.5341 35.4028 40.1976 30.0645 41.6377 22.6023 39.8141 13.2242 39.0721 9.40347 37.7958 5.85508 36.0208 2.67822 34.2438-0.502263 31.8952-3.44505 29.0393-6.07004 25.6206-9.26964 21.7513-11.5898 17.5492-12.955 13.4138-14.3021 8.10286-14.9852 1.76412-14.9852L-11.0105-14.9852-14.6586-33.7539C-14.8002-34.4825-15.4379-35.0085-16.1799-35.0085L-32.5866-35.0085Z" transform="matrix(1 0 0 -1.00135 1689.75 1201.14)"/><path d="M0 0 8.68522 0C15.6203 0 18.0293-1.52177 18.8478-2.42864 20.2057-3.93439 20.462-7.10919 19.5893-11.6094 18.6085-16.6475 16.7907-20.2197 14.1853-22.2256 11.5179-24.2791 7.18153-25.3198 1.29751-25.3198L-4.92083-25.3198 0 0ZM14.8979 18.0856-16.6511 18.0856C-18.1352 18.0856-19.411 17.0335-19.6942 15.5769L-34.3321-59.7372C-34.5089-60.6462-34.2701-61.5861-33.6816-62.3007-33.0925-63.0154-32.2151-63.4288-31.2891-63.4288L-14.8829-63.4288C-13.3983-63.4288-12.1225-62.3767-11.8393-60.92L-8.43512-43.4054 3.06163-43.4054C9.56314-43.4054 15.0364-42.6965 19.3278-41.2987 23.7412-39.8648 27.8017-37.4336 31.3956-34.0727 34.3678-31.3382 36.8161-28.2688 38.6711-24.9488 40.5267-21.6278 41.8599-17.9244 42.6334-13.9414 44.5531-4.06978 42.9936 3.83518 37.9989 9.55229 33.0527 15.2146 25.28 18.0856 14.8979 18.0856M-8.68212-28.4202 1.29751-28.4202C7.91219-28.4202 12.8392-27.1744 16.0765-24.6822 19.3144-22.1895 21.4981-18.0293 22.6328-12.1995 23.7185-6.60227 23.224-2.65238 21.1493-0.351377 19.072 1.94963 14.918 3.10039 8.68522 3.10039L-2.55575 3.10039-8.68212-28.4202M14.8979 14.9852C24.3887 14.9852 31.3124 12.4946 35.6643 7.51275 40.0157 2.53095 41.3261-4.4227 39.5899-13.3503 38.8752-17.0278 37.6666-20.3902 35.965-23.4363 34.2613-26.4845 32.0368-29.2718 29.2878-31.7991 26.0117-34.8649 22.3724-37.0496 18.3677-38.3508 14.3631-39.6555 9.26241-40.305 3.06163-40.305L-10.9914-40.305-14.8829-60.3284-31.2891-60.3284-16.6511 14.9852 14.8979 14.9852" fill="#FFFFFF" transform="matrix(1 0 0 -1.00135 1688.46 1174.23)"/><path d="M0 0C-0.462991 0-0.901696 0.206692-1.19572 0.56427-1.49077 0.921332-1.61013 1.39104-1.52177 1.84576L4.95339 35.1692C5.56933 38.3384 5.41741 40.613 4.52605 41.5741 3.98038 42.1617 2.34131 43.1471-2.50511 43.1471L-14.2359 43.1471-22.377 1.25462C-22.5186 0.526032-23.1568 0-23.8988 0L-40.1758 0C-40.6388 0-41.0775 0.206692-41.3721 0.56427-41.6666 0.921332-41.786 1.39156-41.6976 1.84576L-27.0597 77.1599C-26.9181 77.8879-26.2799 78.414-25.5379 78.414L-9.26086 78.414C-8.79786 78.414-8.35916 78.2073-8.06462 77.8502-7.77009 77.4926-7.65072 77.0229-7.73908 76.5682L-11.2715 58.3906 1.34815 58.3906C10.9619 58.3906 17.481 56.6957 21.278 53.2088 25.1483 49.6517 26.3559 43.964 24.8677 36.3019L18.0572 1.25462C17.9156 0.526032 17.2779 0 16.5354 0L0 0Z" transform="matrix(1 0 0 -1.00135 1767.19 1216.14)"/><path d="M0 0-16.277 0C-17.7616 0-19.0374-1.05206-19.3206-2.50873L-33.9585-77.8228C-34.1353-78.7318-33.8965-79.6717-33.3075-80.3863-32.7184-81.101-31.841-81.5144-30.915-81.5144L-14.638-81.5144C-13.1539-81.5144-11.8776-80.4623-11.5944-79.0056L-3.69721-38.3673 6.75574-38.3673C11.5939-38.3673 12.6093-39.4008 12.6501-39.4452 12.9436-39.7609 13.3296-41.2233 12.6925-44.4993L6.21731-77.8228C6.04059-78.7318 6.27932-79.6717 6.86839-80.3863 7.45746-81.101 8.33487-81.5144 9.26086-81.5144L25.7963-81.5144C27.2803-81.5144 28.5566-80.4623 28.8398-79.0056L35.6498-43.9583C37.2481-35.7314 35.8808-29.5601 31.5878-25.6144 27.4911-21.852 20.6289-20.0233 10.609-20.0233L-0.130733-20.0233 3.04355-3.69204C3.21975-2.78311 2.98154-1.84266 2.39247-1.12854 1.80339-0.413902 0.925982 0 0 0M0-3.10039-3.8915-23.1237 10.609-23.1237C19.7329-23.1237 26.0262-24.7163 29.4898-27.8973 32.9535-31.0803 33.9911-36.2378 32.6068-43.3672L25.7963-78.414 9.26086-78.414 15.736-45.091C16.4729-41.3003 16.2021-38.7145 14.9227-37.3359 13.6427-35.9573 10.9201-35.2669 6.75574-35.2669L-6.25348-35.2669-14.638-78.414-30.915-78.414-16.277-3.10039 0-3.10039" fill="#FFFFFF" transform="matrix(1 0 0 -1.00135 1757.93 1136.07)"/><path d="M0 0C6.23436 0 10.8886 1.14973 13.8334 3.41611 16.7467 5.65872 18.7589 9.54506 19.8141 14.9666 20.7974 20.0337 20.4228 23.5717 18.7005 25.481 16.94 27.4312 13.1338 28.4202 7.38771 28.4202L-2.57539 28.4202-8.09873 0 0 0ZM-32.5861-35.0085C-33.0486-35.0085-33.4878-34.8018-33.7818-34.4443-34.0764-34.0872-34.1962-33.617-34.1079-33.1628L-19.4699 42.1513C-19.3278 42.8794-18.6902 43.4054-17.9476 43.4054L13.6004 43.4054C23.5159 43.4054 30.8954 40.7133 35.5346 35.4028 40.1981 30.065 41.6377 22.6029 39.8147 13.2242 39.0716 9.40347 37.7958 5.85508 36.0208 2.67822 34.2438-0.502263 31.8952-3.44505 29.0393-6.07004 25.6206-9.26964 21.7513-11.5898 17.5492-12.955 13.4138-14.3021 8.10286-14.9852 1.76412-14.9852L-11.011-14.9852-14.6576-33.7539C-14.7997-34.4825-15.4373-35.0085-16.1799-35.0085L-32.5861-35.0085Z" transform="matrix(1 0 0 -1.00135 1817.81 1201.14)"/><path d="M0 0 8.68522 0C15.6203 0 18.0293-1.52177 18.8478-2.42864 20.2063-3.93439 20.4626-7.10919 19.5893-11.6089 18.6085-16.6475 16.7901-20.2197 14.1853-22.2256 11.5179-24.2791 7.18153-25.3198 1.29751-25.3198L-4.92031-25.3198 0 0ZM14.8979 18.0856-16.6506 18.0856C-18.1347 18.0856-19.4105 17.0335-19.6937 15.5769L-34.3316-59.7372C-34.5083-60.6462-34.2696-61.5861-33.6811-62.3007-33.092-63.0154-32.2146-63.4288-31.2886-63.4288L-14.8824-63.4288C-13.3983-63.4288-12.122-62.3767-11.8388-60.92L-8.43512-43.4054 3.06163-43.4054C9.56314-43.4054 15.0364-42.6965 19.3278-41.2987 23.7412-39.8648 27.8027-37.433 31.3966-34.0717 34.3688-31.3377 36.8161-28.2688 38.6711-24.9488 40.5267-21.6278 41.8599-17.9244 42.6334-13.9414 44.5531-4.06926 42.9936 3.8357 37.9989 9.55281 33.0527 15.2146 25.2806 18.0856 14.8979 18.0856M-8.6816-28.4202 1.29751-28.4202C7.91219-28.4202 12.8392-27.1744 16.0765-24.6822 19.3149-22.1895 21.4981-18.0293 22.6328-12.1995 23.719-6.60227 23.2245-2.65238 21.1493-0.351377 19.072 1.94963 14.918 3.10039 8.68522 3.10039L-2.55575 3.10039-8.6816-28.4202M14.8979 14.9852C24.3887 14.9852 31.3124 12.4946 35.6643 7.51275 40.0162 2.53095 41.3261-4.4227 39.5899-13.3503 38.8752-17.0278 37.6666-20.3902 35.965-23.4363 34.2613-26.4845 32.0368-29.2718 29.2878-31.7991 26.0117-34.8649 22.3724-37.0496 18.3677-38.3508 14.3631-39.6555 9.26241-40.305 3.06163-40.305L-10.9914-40.305-14.8824-60.3284-31.2886-60.3284-16.6506 14.9852 14.8979 14.9852" fill="#FFFFFF" transform="matrix(1 0 0 -1.00135 1816.51 1174.23)"/></g></g></g></g><g clip-path="url(#clip8)"><g clip-path="url(#clip9)"><g clip-path="url(#clip10)"><path d="M159.555 69.501 145.444 69.501C144.948 93.3188 143.572 115.715 141.324 136.695L141.2 136.695 119.715 69.501 108.971 69.501 87.6163 136.695 87.4905 136.695C85.906 116.547 84.9091 94.1502 84.4934 69.501L71.6273 69.501C72.4587 99.4784 74.5395 127.58 77.8695 153.811L95.3593 153.811 115.717 91.8627 115.842 91.8627 136.326 153.811 153.06 153.811C156.725 123.089 158.889 94.9795 159.553 69.501" fill="#00758F" transform="matrix(1 0 0 -1.00657 2121.37 1404.71)"/><path d="M220.766 131.704C215.019 100.525 207.44 77.8676 198.032 63.7332 190.701 52.8421 182.671 47.3966 173.927 47.3966 171.596 47.3966 168.721 48.0987 165.31 49.4939L165.31 57.0099C166.976 56.7659 168.932 56.6357 171.18 56.6357 175.26 56.6357 178.548 57.7632 181.049 60.0135 184.044 62.7555 185.543 65.8375 185.543 69.2529 185.543 71.5857 184.374 76.3725 182.046 83.6136L166.56 131.704 180.422 131.704 191.537 95.7369C194.034 87.5708 195.076 81.87 194.659 78.6207 200.738 94.8578 204.985 112.553 207.401 131.704L220.765 131.704" fill="#00758F" transform="matrix(1 0 0 -1.00657 2121.37 1404.71)"/><path d="M282.579 92.8704C282.579 85.7203 279.952 79.8504 274.715 75.2577 269.474 70.6853 262.433 68.3929 253.616 68.3929 245.369 68.3929 237.377 71.0313 229.635 76.265L233.257 83.5072C239.919 80.1769 245.948 78.5138 251.361 78.5138 256.439 78.5138 260.413 79.6439 263.289 81.8765 266.157 84.1253 267.877 87.2617 267.877 91.2398 267.877 96.2458 264.385 100.525 257.98 104.115 252.066 107.36 240.248 114.135 240.248 114.135 233.844 118.806 230.634 123.818 230.634 132.076 230.634 138.906 233.028 144.426 237.81 148.626 242.603 152.835 248.786 154.939 256.358 154.939 264.185 154.939 271.302 152.85 277.712 148.688L274.456 141.452C268.971 143.778 263.563 144.945 258.23 144.945 253.903 144.945 250.569 143.906 248.244 141.816 245.907 139.744 244.462 137.078 244.462 133.828 244.462 128.835 248.029 124.504 254.615 120.845 260.603 117.598 272.711 110.692 272.711 110.692 279.297 106.029 282.579 101.058 282.579 92.8704" fill="#F29111" transform="matrix(1 0 0 -1.00657 2121.37 1404.71)"/><path d="M307.805 86.367C304.39 91.8627 302.679 100.682 302.679 112.842 302.679 134.072 309.135 144.694 322.04 144.694 328.787 144.694 333.738 142.153 336.905 137.078 340.316 131.579 342.027 122.836 342.027 110.846 342.027 89.4463 335.571 78.7421 322.666 78.7421 315.921 78.7421 310.968 81.28 307.805 86.3661M358.013 67.4675 342.516 75.1093C343.896 76.2409 345.207 77.4617 346.393 78.8749 352.972 86.6101 356.266 98.0588 356.266 113.216 356.266 141.108 345.315 155.062 323.417 155.062 312.676 155.062 304.305 151.525 298.311 144.441 291.729 136.697 288.443 125.291 288.443 110.22 288.443 95.4 291.355 84.528 297.184 77.6219 302.494 71.3796 310.526 68.2541 321.278 68.2541 325.289 68.2541 328.97 68.7479 332.315 69.7358L352.496 57.9919 357.998 67.4683" fill="#F29111" fill-rule="evenodd" transform="matrix(1 0 0 -1.00657 2121.37 1404.71)"/><path d="M408.6 69.501 368.511 69.501 368.511 153.811 382.001 153.811 382.001 79.8722 408.6 79.8722 408.6 69.5012" fill="#F29111" transform="matrix(1 0 0 -1.00657 2121.37 1404.71)"/><path d="M418.221 69.5097 420.456 69.5097 420.456 78.0876 423.381 78.0876 423.381 79.8398 415.182 79.8398 415.182 78.0876 418.221 78.0876 418.221 69.5097ZM435.23 69.5097 437.337 69.5097 437.337 79.8398 434.168 79.8398 431.589 72.7985 428.781 79.8398 425.727 79.8398 425.727 69.5097 427.721 69.5097 427.721 77.3716 427.834 77.3716 430.775 69.5097 432.294 69.5097 435.23 77.3716 435.23 69.5097" fill="#F29111" transform="matrix(1 0 0 -1.00657 2121.37 1404.71)"/><path d="M425.534 182.052C417.38 182.256 411.066 181.442 405.771 179.199 404.243 178.589 401.801 178.589 401.592 176.653 402.412 175.839 402.51 174.516 403.229 173.391 404.447 171.353 406.583 168.607 408.522 167.177 410.661 165.547 412.801 163.923 415.045 162.497 419.015 160.041 423.499 158.621 427.364 156.176 429.612 154.751 431.846 152.919 434.094 151.387 435.211 150.573 435.918 149.246 437.35 148.742L437.35 149.051C436.632 149.965 436.432 151.289 435.722 152.314 434.706 153.325 433.685 154.247 432.664 155.262 429.708 159.234 426.036 162.694 422.073 165.547 418.81 167.794 411.676 170.85 410.357 174.608 410.357 174.608 410.25 174.716 410.15 174.816 412.392 175.023 415.045 175.839 417.182 176.457 420.641 177.371 423.799 177.164 427.364 178.079 428.997 178.489 430.627 179.002 432.264 179.503L432.264 180.426C430.42 182.256 429.101 184.704 427.166 186.434 421.975 190.915 416.264 195.292 410.357 198.965 407.194 201.003 403.12 202.321 399.757 204.057 398.54 204.669 396.505 204.971 395.789 205.995 393.954 208.235 392.931 211.186 391.61 213.838 388.659 219.435 385.801 225.647 383.259 231.565 381.426 235.535 380.305 239.505 378.064 243.174 367.566 260.495 356.161 270.982 338.64 281.272 334.87 283.414 330.389 284.33 325.605 285.451 323.054 285.558 320.509 285.756 317.963 285.856 316.331 286.572 314.698 288.509 313.275 289.426 307.466 293.091 292.498 301.035 288.216 290.544 285.465 283.919 292.291 277.402 294.635 274.04 296.365 271.7 298.609 269.047 299.826 266.402 300.54 264.67 300.744 262.833 301.461 261.002 303.089 256.521 304.614 251.528 306.758 247.349 307.875 245.209 309.096 242.965 310.521 241.039 311.344 239.912 312.765 239.409 313.072 237.57 311.651 235.535 311.54 232.479 310.726 229.93 307.061 218.418 308.484 204.158 313.682 195.704 315.308 193.158 319.184 187.553 324.379 189.698 328.963 191.528 327.945 197.335 329.268 202.425 329.573 203.656 329.368 204.464 329.977 205.278L329.977 205.072C331.403 202.224 332.833 199.48 334.156 196.618 337.319 191.632 342.815 186.435 347.403 182.975 349.84 181.134 351.778 177.982 354.833 176.858L354.833 177.165 354.633 177.165C354.019 178.079 353.105 178.49 352.289 179.2 350.456 181.035 348.424 183.277 346.991 185.313 342.714 191.015 338.94 197.335 335.586 203.853 333.952 207.019 332.528 210.479 331.203 213.635 330.593 214.852 330.593 216.691 329.573 217.3 328.04 215.062 325.805 213.123 324.686 210.381 322.749 205.996 322.547 200.598 321.828 194.993 321.424 194.886 321.628 194.993 321.424 194.79 318.168 195.605 317.047 198.966 315.821 201.809 312.765 209.051 312.252 220.663 314.905 229.017 315.614 231.153 318.679 237.876 317.451 239.913 316.836 241.857 314.8 242.967 313.682 244.501 312.361 246.436 310.926 248.876 310.019 251.02 307.572 256.723 306.342 263.041 303.702 268.743 302.479 271.397 300.335 274.148 298.609 276.588 296.67 279.339 294.533 281.274 293.003 284.53 292.498 285.653 291.784 287.488 292.595 288.707 292.796 289.523 293.209 289.83 294.025 290.034 295.342 291.155 299.116 289.732 300.438 289.12 304.209 287.597 307.368 286.162 310.521 284.027 311.949 283.006 313.477 281.071 315.308 280.558L317.451 280.558C320.71 279.85 324.379 280.36 327.437 279.439 332.833 277.709 337.721 275.162 342.105 272.411 355.445 263.955 366.447 251.932 373.88 237.571 375.106 235.231 375.619 233.09 376.738 230.65 378.878 225.648 381.529 220.555 383.664 215.67 385.801 210.882 387.843 205.997 390.903 202.018 392.426 199.882 398.54 198.761 401.291 197.64 403.324 196.726 406.487 195.91 408.322 194.791 411.784 192.655 415.241 190.207 418.506 187.86 420.131 186.637 425.227 184.094 425.534 182.053" fill="#00758F" fill-rule="evenodd" transform="matrix(1 0 0 -1.00657 2121.37 1404.71)"/><path d="M321.626 270.586C319.898 270.586 318.679 270.377 317.449 270.075L317.449 269.87 317.647 269.87C318.47 268.244 319.898 267.115 320.908 265.691 321.728 264.061 322.442 262.437 323.256 260.805 323.356 260.905 323.454 261.012 323.454 261.012 324.891 262.026 325.603 263.654 325.603 266.103 324.987 266.821 324.891 267.528 324.377 268.245 323.768 269.261 322.442 269.77 321.626 270.586" fill="#00758F" fill-rule="evenodd" transform="matrix(1 0 0 -1.00657 2121.37 1404.71)"/></g></g></g></g></svg>